<mxfile host="app.diagrams.net" agent="Mozilla/5.0 (Macintosh; Intel Mac OS X 10_15_7) AppleWebKit/537.36 (KHTML, like Gecko) Chrome/135.0.0.0 Safari/537.36" version="26.2.14">
  <diagram name="페이지-1" id="WM2YHoI3XMPl7KEgLp-8">
    <mxGraphModel dx="1028" dy="687" grid="1" gridSize="10" guides="1" tooltips="1" connect="1" arrows="1" fold="1" page="1" pageScale="1" pageWidth="827" pageHeight="1169" math="0" shadow="0">
      <root>
        <mxCell id="0" />
        <mxCell id="1" parent="0" />
        <UserObject label="https://azure.microsoft.com/svghandler/cache/?width=600&amp;height=315" link="https://azure.microsoft.com/svghandler/cache/?width=600&amp;height=315" id="j5Ou1AIrf4W_99Q9KBAx-1">
          <mxCell style="rounded=0;whiteSpace=wrap;html=1;glass=0;" vertex="1" parent="1">
            <mxGeometry x="170" y="250" width="730" height="680" as="geometry" />
          </mxCell>
        </UserObject>
        <mxCell id="j5Ou1AIrf4W_99Q9KBAx-2" value="Azure" style="verticalLabelPosition=bottom;html=1;verticalAlign=top;align=center;strokeColor=none;fillColor=#00BEF2;shape=mxgraph.azure.azure_instance;" vertex="1" parent="1">
          <mxGeometry x="180" y="260" width="20" height="20" as="geometry" />
        </mxCell>
        <mxCell id="j5Ou1AIrf4W_99Q9KBAx-3" value="" style="rounded=0;whiteSpace=wrap;html=1;" vertex="1" parent="1">
          <mxGeometry x="180" y="300" width="580" height="420" as="geometry" />
        </mxCell>
        <mxCell id="j5Ou1AIrf4W_99Q9KBAx-4" value="Vnet" style="verticalLabelPosition=bottom;html=1;verticalAlign=top;align=center;strokeColor=none;fillColor=#00BEF2;shape=mxgraph.azure.virtual_network;pointerEvents=1;" vertex="1" parent="1">
          <mxGeometry x="190" y="320" width="36.36" height="20" as="geometry" />
        </mxCell>
        <mxCell id="j5Ou1AIrf4W_99Q9KBAx-5" value="Public subnet" style="points=[[0,0],[0.25,0],[0.5,0],[0.75,0],[1,0],[1,0.25],[1,0.5],[1,0.75],[1,1],[0.75,1],[0.5,1],[0.25,1],[0,1],[0,0.75],[0,0.5],[0,0.25]];outlineConnect=0;gradientColor=none;html=1;whiteSpace=wrap;fontSize=12;fontStyle=0;container=1;pointerEvents=0;collapsible=0;recursiveResize=0;shape=mxgraph.aws4.group;grIcon=mxgraph.aws4.group_security_group;grStroke=0;strokeColor=#7AA116;fillColor=#F2F6E8;verticalAlign=top;align=left;spacingLeft=30;fontColor=#248814;dashed=0;" vertex="1" parent="1">
          <mxGeometry x="240" y="310" width="90" height="400" as="geometry" />
        </mxCell>
        <mxCell id="j5Ou1AIrf4W_99Q9KBAx-7" value="Application&lt;br&gt;Gateway" style="image;sketch=0;aspect=fixed;html=1;points=[];align=center;fontSize=12;image=img/lib/mscae/Application_Gateway.svg;" vertex="1" parent="j5Ou1AIrf4W_99Q9KBAx-5">
          <mxGeometry x="20" y="175" width="50" height="50" as="geometry" />
        </mxCell>
        <mxCell id="j5Ou1AIrf4W_99Q9KBAx-6" value="Private subnet (AKS)" style="points=[[0,0],[0.25,0],[0.5,0],[0.75,0],[1,0],[1,0.25],[1,0.5],[1,0.75],[1,1],[0.75,1],[0.5,1],[0.25,1],[0,1],[0,0.75],[0,0.5],[0,0.25]];outlineConnect=0;gradientColor=none;html=1;whiteSpace=wrap;fontSize=12;fontStyle=0;container=1;pointerEvents=0;collapsible=0;recursiveResize=0;shape=mxgraph.aws4.group;grIcon=mxgraph.aws4.group_security_group;grStroke=0;strokeColor=#00A4A6;fillColor=#E6F6F7;verticalAlign=top;align=left;spacingLeft=30;fontColor=#147EBA;dashed=0;" vertex="1" parent="1">
          <mxGeometry x="349" y="310" width="391" height="400" as="geometry" />
        </mxCell>
        <mxCell id="j5Ou1AIrf4W_99Q9KBAx-9" value="ingress" style="shape=image;verticalLabelPosition=bottom;labelBackgroundColor=default;verticalAlign=top;aspect=fixed;imageAspect=0;image=https://blog.kakaocdn.net/dn/cjfrcx/btsJ0M3mBt5/m4mYmcYIHokTlkyQycnIRk/img.png;" vertex="1" parent="j5Ou1AIrf4W_99Q9KBAx-6">
          <mxGeometry x="15" y="175" width="50" height="50" as="geometry" />
        </mxCell>
        <mxCell id="j5Ou1AIrf4W_99Q9KBAx-14" value="front-end" style="shape=image;verticalLabelPosition=bottom;labelBackgroundColor=default;verticalAlign=top;aspect=fixed;imageAspect=0;image=https://cdn3.iconfinder.com/data/icons/logos-and-brands-adobe/512/367_Vuejs-512.png;" vertex="1" parent="j5Ou1AIrf4W_99Q9KBAx-6">
          <mxGeometry x="120.99" y="140" width="40" height="40" as="geometry" />
        </mxCell>
        <mxCell id="j5Ou1AIrf4W_99Q9KBAx-15" value="" style="shape=image;verticalLabelPosition=bottom;labelBackgroundColor=default;verticalAlign=top;aspect=fixed;imageAspect=0;image=https://miro.medium.com/v2/resize:fit:1400/0*bKfOagkmq0M2KR3-.png;" vertex="1" parent="j5Ou1AIrf4W_99Q9KBAx-6">
          <mxGeometry x="115.99" y="250" width="50" height="50" as="geometry" />
        </mxCell>
        <mxCell id="j5Ou1AIrf4W_99Q9KBAx-17" value="argocd" style="shape=image;verticalLabelPosition=bottom;labelBackgroundColor=default;verticalAlign=top;aspect=fixed;imageAspect=0;image=https://miro.medium.com/v2/resize:fit:1000/0*rL3ddwwD5xZa-xmG.png;clipPath=inset(11.4% 31.33% 17.84% 30.33%);" vertex="1" parent="j5Ou1AIrf4W_99Q9KBAx-6">
          <mxGeometry x="114.86" y="330" width="52.27" height="55" as="geometry" />
        </mxCell>
        <mxCell id="j5Ou1AIrf4W_99Q9KBAx-19" value="" style="endArrow=classic;startArrow=classic;html=1;rounded=0;entryX=0;entryY=0.5;entryDx=0;entryDy=0;exitX=0.5;exitY=0;exitDx=0;exitDy=0;" edge="1" parent="j5Ou1AIrf4W_99Q9KBAx-6" source="j5Ou1AIrf4W_99Q9KBAx-9" target="j5Ou1AIrf4W_99Q9KBAx-14">
          <mxGeometry width="50" height="50" relative="1" as="geometry">
            <mxPoint x="91" y="330" as="sourcePoint" />
            <mxPoint x="141" y="280" as="targetPoint" />
            <Array as="points">
              <mxPoint x="40" y="160" />
            </Array>
          </mxGeometry>
        </mxCell>
        <mxCell id="j5Ou1AIrf4W_99Q9KBAx-20" value="" style="endArrow=classic;startArrow=classic;html=1;rounded=0;entryX=0;entryY=0.5;entryDx=0;entryDy=0;exitX=0.5;exitY=1;exitDx=0;exitDy=0;" edge="1" parent="j5Ou1AIrf4W_99Q9KBAx-6" source="j5Ou1AIrf4W_99Q9KBAx-9" target="j5Ou1AIrf4W_99Q9KBAx-15">
          <mxGeometry width="50" height="50" relative="1" as="geometry">
            <mxPoint x="91" y="330" as="sourcePoint" />
            <mxPoint x="141" y="280" as="targetPoint" />
            <Array as="points">
              <mxPoint x="41" y="275" />
            </Array>
          </mxGeometry>
        </mxCell>
        <mxCell id="j5Ou1AIrf4W_99Q9KBAx-28" value="mvp_ppon_pub_backend" style="shape=image;verticalLabelPosition=bottom;labelBackgroundColor=default;verticalAlign=top;aspect=fixed;imageAspect=0;image=https://www.svgrepo.com/show/354380/spring-icon.svg;fontSize=10;" vertex="1" parent="j5Ou1AIrf4W_99Q9KBAx-6">
          <mxGeometry x="281" y="40" width="39" height="39" as="geometry" />
        </mxCell>
        <mxCell id="j5Ou1AIrf4W_99Q9KBAx-46" value="mvp_baseinfo_backend" style="shape=image;verticalLabelPosition=bottom;labelBackgroundColor=default;verticalAlign=top;aspect=fixed;imageAspect=0;image=https://www.svgrepo.com/show/354380/spring-icon.svg;fontSize=10;" vertex="1" parent="j5Ou1AIrf4W_99Q9KBAx-6">
          <mxGeometry x="281" y="235.5" width="39" height="39" as="geometry" />
        </mxCell>
        <mxCell id="j5Ou1AIrf4W_99Q9KBAx-16" value="mvp_apigw" style="shape=image;verticalLabelPosition=bottom;labelBackgroundColor=default;verticalAlign=top;aspect=fixed;imageAspect=0;image=https://www.svgrepo.com/show/354380/spring-icon.svg;" vertex="1" parent="1">
          <mxGeometry x="470" y="350" width="39" height="39" as="geometry" />
        </mxCell>
        <mxCell id="j5Ou1AIrf4W_99Q9KBAx-18" value="" style="endArrow=classic;startArrow=classic;html=1;rounded=0;exitX=0;exitY=0.5;exitDx=0;exitDy=0;entryX=0.5;entryY=0;entryDx=0;entryDy=0;" edge="1" parent="1" source="j5Ou1AIrf4W_99Q9KBAx-16" target="j5Ou1AIrf4W_99Q9KBAx-9">
          <mxGeometry width="50" height="50" relative="1" as="geometry">
            <mxPoint x="440" y="640" as="sourcePoint" />
            <mxPoint x="490" y="590" as="targetPoint" />
            <Array as="points">
              <mxPoint x="389" y="370" />
            </Array>
          </mxGeometry>
        </mxCell>
        <mxCell id="j5Ou1AIrf4W_99Q9KBAx-21" value="" style="endArrow=classic;startArrow=classic;html=1;rounded=0;entryX=0;entryY=0.5;entryDx=0;entryDy=0;" edge="1" parent="1" target="j5Ou1AIrf4W_99Q9KBAx-17">
          <mxGeometry width="50" height="50" relative="1" as="geometry">
            <mxPoint x="390" y="540" as="sourcePoint" />
            <mxPoint x="490" y="590" as="targetPoint" />
            <Array as="points">
              <mxPoint x="390" y="668" />
            </Array>
          </mxGeometry>
        </mxCell>
        <mxCell id="j5Ou1AIrf4W_99Q9KBAx-23" value="redis" style="shape=image;verticalLabelPosition=bottom;labelBackgroundColor=default;verticalAlign=top;aspect=fixed;imageAspect=0;image=https://symbols.getvecta.com/stencil_28/13_cache-including-redis.0a9a47332f.png;" vertex="1" parent="1">
          <mxGeometry x="810" y="450" width="40" height="40" as="geometry" />
        </mxCell>
        <mxCell id="j5Ou1AIrf4W_99Q9KBAx-25" value="mysql" style="shape=image;verticalLabelPosition=bottom;labelBackgroundColor=default;verticalAlign=top;aspect=fixed;imageAspect=0;image=https://cdn.prod.website-files.com/5ecbeb8d7557e7f636691721/65837b0a4fcdb20bb848eed4_Azure-MySQL_logo.png;clipPath=inset(6% 17.6% 8% 16.8%);" vertex="1" parent="1">
          <mxGeometry x="810.93" y="560" width="38.14" height="50" as="geometry" />
        </mxCell>
        <mxCell id="j5Ou1AIrf4W_99Q9KBAx-27" value="eventhub" style="shape=image;verticalLabelPosition=bottom;labelBackgroundColor=default;verticalAlign=top;aspect=fixed;imageAspect=0;image=https://symbols.getvecta.com/stencil_27/48_event-hubs.7e2864e3a4.png;" vertex="1" parent="1">
          <mxGeometry x="810.9300000000001" y="340" width="40" height="40" as="geometry" />
        </mxCell>
        <mxCell id="j5Ou1AIrf4W_99Q9KBAx-45" value="mvp_ppon_pub_backend" style="shape=image;verticalLabelPosition=bottom;labelBackgroundColor=default;verticalAlign=top;aspect=fixed;imageAspect=0;image=https://www.svgrepo.com/show/354380/spring-icon.svg;fontSize=10;" vertex="1" parent="1">
          <mxGeometry x="630" y="450" width="39" height="39" as="geometry" />
        </mxCell>
        <mxCell id="j5Ou1AIrf4W_99Q9KBAx-47" value="mvp_custinfo_backend" style="shape=image;verticalLabelPosition=bottom;labelBackgroundColor=default;verticalAlign=top;aspect=fixed;imageAspect=0;image=https://www.svgrepo.com/show/354380/spring-icon.svg;fontSize=10;" vertex="1" parent="1">
          <mxGeometry x="630" y="640" width="39" height="39" as="geometry" />
        </mxCell>
      </root>
    </mxGraphModel>
  </diagram>
</mxfile>
